<svg id="Layer_1" data-name="Layer 1" xmlns="http://www.w3.org/2000/svg" viewBox="0 0 144.1 83.7"><title>logo-black</title><path d="M10.4,67.7h3.9l8.8,15.6H17.8l-1.6-3.2H6.8L5.3,83.3H0L8,68.8a2.55,2.55,0,0,1,2.4-1.1m1.1,3.2L8.1,77.5h6.8Z"/><path d="M30.4,77.8v5.6h-5v-14c0-.5.3-.8.7-1.2a3.45,3.45,0,0,1,1.8-.5h8.2c2.6,0,4.5.4,5.8,1.3a4.58,4.58,0,0,1,.1,7.5,10.38,10.38,0,0,1-5.5,1.3Zm0-2.8h4.9a6,6,0,0,0,2.8-.5,1.75,1.75,0,0,0,.9-1.7,2.14,2.14,0,0,0-.8-1.7,5,5,0,0,0-2.6-.5H30.5L30.4,75Z"/><path d="M46,83.3v-14a1.42,1.42,0,0,1,.7-1.2,3.45,3.45,0,0,1,1.8-.5H51V83.2H46Z"/><path d="M54.1,83.3v-14a1.42,1.42,0,0,1,.7-1.2,3.45,3.45,0,0,1,1.8-.5h7c3.7,0,6.5.6,8.3,1.9a6.84,6.84,0,0,1,2.7,5.9,7.21,7.21,0,0,1-1,3.8,6.87,6.87,0,0,1-3,2.6,11.66,11.66,0,0,1-3.3,1.1,31.28,31.28,0,0,1-5.1.3H54.1ZM59,80.5h4a8.72,8.72,0,0,0,5.1-1.2c1-.7,1.5-2,1.5-3.8a4.84,4.84,0,0,0-1.5-3.9q-1.35-1.2-4.5-1.2H59V80.5Z"/><path d="M82.4,67.7v9.7a3.1,3.1,0,0,0,1.1,2.7,6.37,6.37,0,0,0,3.6.8,6.85,6.85,0,0,0,3.6-.8,2.88,2.88,0,0,0,1.1-2.7V67.7h5V77.8a4.8,4.8,0,0,1-2.5,4.4q-2.25,1.5-7.2,1.5-4.8,0-7.2-1.5a4.8,4.8,0,0,1-2.5-4.4V69.4a1.31,1.31,0,0,1,.7-1.2,3.45,3.45,0,0,1,1.8-.5Z"/><path d="M99.4,83.3v-14a1.42,1.42,0,0,1,.7-1.2,3.45,3.45,0,0,1,1.8-.5h9.2a12.13,12.13,0,0,1,5.8,1.1,3.75,3.75,0,0,1,2,3.3,3,3,0,0,1-1,2.4,5.68,5.68,0,0,1-2.7,1.3,3.24,3.24,0,0,1,3.1,3.4l.1,1.9v.6a1.27,1.27,0,0,0,.1.6,1.21,1.21,0,0,0,.8,1h-5.5a1.78,1.78,0,0,1-.4-1,4.59,4.59,0,0,1-.1-1l-.1-1.7a2.81,2.81,0,0,0-.8-1.9,5.57,5.57,0,0,0-2.7-.5h-5.3v6.1l-5,.1Zm5-8.8h5.8A6.35,6.35,0,0,0,113,74a1.7,1.7,0,0,0,0-3,4.45,4.45,0,0,0-2.5-.5h-6.1Z"/><path d="M131.4,67.7h3.9l8.8,15.6h-5.3l-1.6-3.2h-9.4l-1.5,3.2H121l8-14.5a2.55,2.55,0,0,1,2.4-1.1m1.1,3.2-3.4,6.6h6.8Z"/><path d="M81.7,32.8s-.1-.7-.2-1.1a6.89,6.89,0,0,1-.3.8A39.38,39.38,0,0,1,73.4,45h0l-1.2,1.3-1.1-1.2a40.22,40.22,0,0,1-7.9-12.6,6.89,6.89,0,0,0-.3-.8c-.1.4-.2,1.1-.2,1.1-.3,2-1.4,12.7,9.3,24.8h0l.1.2h0l.1-.2h0C83.1,45.5,82,34.9,81.7,32.8Z"/><path d="M109.6,10.2A19.78,19.78,0,0,0,113,.1h-.2c-2.4,0-15.3,1.1-29.3,23.6l.5-.1C92.4,22.4,103.7,19.2,109.6,10.2Z"/><path d="M88,25.6a41.12,41.12,0,0,0-4.7.2l.1.2c5.4,5.8,11.4,8.8,17.7,8.8A16.72,16.72,0,0,0,109,33C104.8,26.6,94.1,25.6,88,25.6Z"/><path d="M31.1,0a20.86,20.86,0,0,0,3.4,10.2c3.3,5,10.3,11.3,25.6,13.3l.5.1C46.6,1.2,33.8,0,31.3,0Z"/><path d="M35.1,33.1A18.1,18.1,0,0,0,43,34.9c6.3,0,12.2-3,17.6-8.8l.1-.1a41.12,41.12,0,0,0-4.7-.2C50,25.6,39.3,26.6,35.1,33.1Z"/><path d="M71.9,11.8a17.24,17.24,0,0,1,5.5,1,6.6,6.6,0,0,0,.1-1.4c0-4.4-2.5-8-5.5-8s-5.5,3.6-5.5,8a6.15,6.15,0,0,0,.1,1.3A17.82,17.82,0,0,1,71.9,11.8Z"/><path d="M72.2,43.1C83.1,31,81.9,20.3,81.6,18.3v-.2a14.87,14.87,0,0,0-9.7-3.9,15.74,15.74,0,0,0-9.4,3.5c-.2,1.4-1.8,12.7,9.7,25.3Z"/></svg>